<svg xmlns="http://www.w3.org/2000/svg" xmlns:xlink="http://www.w3.org/1999/xlink" width="500" zoomAndPan="magnify" viewBox="0 0 375 374.999991" height="500" preserveAspectRatio="xMidYMid meet" version="1.0"><defs><g/><clipPath id="a247ca53ce"><path d="M 1 49 L 333 49 L 333 375 L 1 375 Z M 1 49 " clip-rule="nonzero"/></clipPath><clipPath id="fcd183898c"><path d="M 189.753906 464.578125 L -88.359375 198.710938 L 54.683594 49.082031 L 332.792969 314.953125 Z M 189.753906 464.578125 " clip-rule="nonzero"/></clipPath><clipPath id="b74079e006"><path d="M 189.753906 464.578125 L -88.359375 198.710938 L 54.683594 49.082031 L 332.792969 314.953125 Z M 189.753906 464.578125 " clip-rule="nonzero"/></clipPath></defs><g fill="#31302c" fill-opacity="1"><g transform="translate(64.002713, 54.869654)"><g><path d="M -1.359375 12.078125 C -2.078125 12.535156 -2.800781 12.722656 -3.53125 12.640625 C -4.257812 12.566406 -4.945312 12.226562 -5.59375 11.625 C -6.5 10.78125 -6.914062 9.832031 -6.84375 8.78125 C -6.769531 7.738281 -6.222656 6.671875 -5.203125 5.578125 L -1.765625 1.890625 C -1.585938 1.703125 -1.394531 1.601562 -1.1875 1.59375 C -0.976562 1.582031 -0.785156 1.660156 -0.609375 1.828125 L 8.546875 10.375 C 8.722656 10.539062 8.8125 10.726562 8.8125 10.9375 C 8.820312 11.144531 8.738281 11.34375 8.5625 11.53125 L 5.265625 15.046875 C 4.273438 16.117188 3.269531 16.726562 2.25 16.875 C 1.238281 17.019531 0.300781 16.691406 -0.5625 15.890625 C -1.113281 15.367188 -1.453125 14.773438 -1.578125 14.109375 C -1.710938 13.453125 -1.640625 12.773438 -1.359375 12.078125 Z M 3.453125 7.8125 L 0.859375 10.59375 C 0.140625 11.363281 -0.25 12.09375 -0.3125 12.78125 C -0.375 13.46875 -0.109375 14.09375 0.484375 14.65625 C 1.660156 15.75 2.976562 15.515625 4.4375 13.953125 L 7.03125 11.171875 Z M -4.09375 6.375 C -4.851562 7.1875 -5.265625 7.925781 -5.328125 8.59375 C -5.390625 9.257812 -5.101562 9.890625 -4.46875 10.484375 C -3.207031 11.660156 -1.835938 11.457031 -0.359375 9.875 L 2.4375 6.875 L -1.296875 3.375 Z M -4.09375 6.375 "/></g></g></g><g fill="#31302c" fill-opacity="1"><g transform="translate(44.38733, 77.993782)"><g><path d="M -1.421875 2.140625 C -1.285156 1.929688 -1.113281 1.804688 -0.90625 1.765625 C -0.707031 1.722656 -0.507812 1.765625 -0.3125 1.890625 L 10.125 8.84375 C 10.320312 8.96875 10.4375 9.132812 10.46875 9.34375 C 10.507812 9.550781 10.460938 9.757812 10.328125 9.96875 L 6.171875 16.21875 C 6.035156 16.414062 5.878906 16.535156 5.703125 16.578125 C 5.523438 16.628906 5.347656 16.597656 5.171875 16.484375 C 4.992188 16.359375 4.894531 16.207031 4.875 16.03125 C 4.851562 15.851562 4.910156 15.664062 5.046875 15.46875 L 8.765625 9.875 L 4.6875 7.15625 L 1.1875 12.40625 C 1.050781 12.601562 0.894531 12.722656 0.71875 12.765625 C 0.539062 12.804688 0.363281 12.769531 0.1875 12.65625 C 0.0078125 12.539062 -0.09375 12.390625 -0.125 12.203125 C -0.15625 12.023438 -0.101562 11.835938 0.03125 11.640625 L 3.53125 6.390625 L -0.734375 3.546875 L -4.453125 9.140625 C -4.585938 9.335938 -4.738281 9.460938 -4.90625 9.515625 C -5.082031 9.566406 -5.257812 9.53125 -5.4375 9.40625 C -5.625 9.289062 -5.726562 9.140625 -5.75 8.953125 C -5.769531 8.773438 -5.710938 8.585938 -5.578125 8.390625 Z M -1.421875 2.140625 "/></g></g></g><g fill="#31302c" fill-opacity="1"><g transform="translate(29.738444, 102.388268)"><g><path d="M -2.734375 5.625 C -2.316406 4.71875 -1.78125 3.90625 -1.125 3.1875 C -0.476562 2.476562 0.1875 1.984375 0.875 1.703125 C 1.132812 1.585938 1.390625 1.585938 1.640625 1.703125 C 1.816406 1.785156 1.941406 1.90625 2.015625 2.0625 C 2.097656 2.21875 2.109375 2.363281 2.046875 2.5 C 1.972656 2.65625 1.832031 2.796875 1.625 2.921875 C 0.226562 3.648438 -0.796875 4.738281 -1.453125 6.1875 C -1.929688 7.226562 -2.09375 8.117188 -1.9375 8.859375 C -1.789062 9.609375 -1.347656 10.148438 -0.609375 10.484375 C -0.179688 10.679688 0.21875 10.703125 0.59375 10.546875 C 0.976562 10.398438 1.347656 10.144531 1.703125 9.78125 C 2.066406 9.414062 2.503906 8.898438 3.015625 8.234375 C 3.703125 7.347656 4.316406 6.640625 4.859375 6.109375 C 5.410156 5.585938 6.007812 5.238281 6.65625 5.0625 C 7.3125 4.882812 8.019531 4.96875 8.78125 5.3125 C 9.507812 5.644531 10.066406 6.132812 10.453125 6.78125 C 10.847656 7.4375 11.035156 8.1875 11.015625 9.03125 C 11.003906 9.882812 10.789062 10.769531 10.375 11.6875 C 9.988281 12.539062 9.5 13.273438 8.90625 13.890625 C 8.3125 14.503906 7.660156 14.953125 6.953125 15.234375 C 6.648438 15.335938 6.390625 15.335938 6.171875 15.234375 C 5.992188 15.148438 5.863281 15.03125 5.78125 14.875 C 5.707031 14.726562 5.695312 14.585938 5.75 14.453125 C 5.8125 14.316406 5.957031 14.171875 6.1875 14.015625 C 6.945312 13.640625 7.539062 13.238281 7.96875 12.8125 C 8.394531 12.394531 8.769531 11.828125 9.09375 11.109375 C 9.550781 10.097656 9.695312 9.21875 9.53125 8.46875 C 9.375 7.726562 8.914062 7.179688 8.15625 6.828125 C 7.507812 6.535156 6.910156 6.5625 6.359375 6.90625 C 5.816406 7.25 5.195312 7.882812 4.5 8.8125 C 3.726562 9.78125 3.082031 10.53125 2.5625 11.0625 C 2.050781 11.59375 1.472656 11.960938 0.828125 12.171875 C 0.191406 12.390625 -0.5 12.328125 -1.25 11.984375 C -1.96875 11.660156 -2.507812 11.175781 -2.875 10.53125 C -3.25 9.894531 -3.421875 9.144531 -3.390625 8.28125 C -3.367188 7.425781 -3.148438 6.539062 -2.734375 5.625 Z M -2.734375 5.625 "/></g></g></g><g fill="#31302c" fill-opacity="1"><g transform="translate(18.918522, 129.482295)"><g><path d="M -0.765625 2.4375 C -0.691406 2.195312 -0.5625 2.023438 -0.375 1.921875 C -0.195312 1.828125 0.0078125 1.8125 0.25 1.875 L 12.421875 5.140625 C 12.648438 5.203125 12.8125 5.320312 12.90625 5.5 C 13.007812 5.6875 13.03125 5.898438 12.96875 6.140625 L 11.734375 10.734375 C 11.347656 12.171875 10.703125 13.191406 9.796875 13.796875 C 8.890625 14.398438 7.796875 14.53125 6.515625 14.1875 C 5.242188 13.851562 4.359375 13.1875 3.859375 12.1875 C 3.359375 11.195312 3.296875 9.992188 3.671875 8.578125 L 4.703125 4.78125 L -0.171875 3.46875 C -0.410156 3.40625 -0.582031 3.28125 -0.6875 3.09375 C -0.800781 2.90625 -0.828125 2.6875 -0.765625 2.4375 Z M 5.046875 8.78125 C 4.492188 10.851562 5.125 12.128906 6.9375 12.609375 C 8.738281 13.097656 9.914062 12.304688 10.46875 10.234375 L 11.453125 6.59375 L 6.03125 5.140625 Z M 5.046875 8.78125 "/></g></g></g><g fill="#31302c" fill-opacity="1"><g transform="translate(12.513287, 158.569602)"><g><path d="M -0.84375 7.609375 C -0.726562 6.304688 -0.332031 5.195312 0.34375 4.28125 C 1.019531 3.363281 1.914062 2.695312 3.03125 2.28125 C 4.15625 1.863281 5.445312 1.71875 6.90625 1.84375 C 8.394531 1.976562 9.65625 2.347656 10.6875 2.953125 C 11.726562 3.566406 12.492188 4.382812 12.984375 5.40625 C 13.472656 6.425781 13.65625 7.59375 13.53125 8.90625 C 13.414062 10.226562 13.023438 11.34375 12.359375 12.25 C 11.703125 13.164062 10.8125 13.828125 9.6875 14.234375 C 8.5625 14.640625 7.265625 14.773438 5.796875 14.640625 C 4.335938 14.515625 3.085938 14.144531 2.046875 13.53125 C 1.003906 12.914062 0.234375 12.097656 -0.265625 11.078125 C -0.765625 10.066406 -0.957031 8.910156 -0.84375 7.609375 Z M 0.546875 7.734375 C 0.410156 9.210938 0.804688 10.414062 1.734375 11.34375 C 2.671875 12.269531 4.070312 12.816406 5.9375 12.984375 C 7.789062 13.148438 9.253906 12.863281 10.328125 12.125 C 11.398438 11.394531 12.003906 10.28125 12.140625 8.78125 C 12.273438 7.289062 11.875 6.082031 10.9375 5.15625 C 10.007812 4.226562 8.625 3.679688 6.78125 3.515625 C 4.925781 3.347656 3.457031 3.632812 2.375 4.375 C 1.289062 5.125 0.679688 6.242188 0.546875 7.734375 Z M 0.546875 7.734375 "/></g></g></g><g fill="#31302c" fill-opacity="1"><g transform="translate(11.204603, 190.691996)"><g><path d="M 2.21875 11.765625 C 2.0625 11.953125 1.875 12.054688 1.65625 12.078125 C 1.46875 12.085938 1.289062 12.019531 1.125 11.875 C 0.96875 11.738281 0.878906 11.578125 0.859375 11.390625 C 0.847656 11.210938 0.910156 11.023438 1.046875 10.828125 L 6.96875 2.828125 L 1.015625 3.3125 C 0.765625 3.332031 0.554688 3.269531 0.390625 3.125 C 0.222656 2.988281 0.128906 2.796875 0.109375 2.546875 C 0.0976562 2.304688 0.160156 2.109375 0.296875 1.953125 C 0.429688 1.796875 0.625 1.707031 0.875 1.6875 L 13.46875 0.65625 C 13.726562 0.632812 13.941406 0.6875 14.109375 0.8125 C 14.273438 0.945312 14.363281 1.132812 14.375 1.375 C 14.394531 1.625 14.335938 1.832031 14.203125 2 C 14.066406 2.164062 13.867188 2.257812 13.609375 2.28125 L 7.875 2.75 L 14.796875 9.34375 C 14.960938 9.476562 15.050781 9.648438 15.0625 9.859375 C 15.082031 10.054688 15.019531 10.234375 14.875 10.390625 C 14.726562 10.546875 14.566406 10.628906 14.390625 10.640625 C 14.179688 10.660156 13.988281 10.585938 13.8125 10.421875 L 7.609375 4.453125 Z M 2.21875 11.765625 "/></g></g></g><g fill="#31302c" fill-opacity="1"><g transform="translate(15.001321, 219.833596)"><g><path d="M 0.625 2.5 C 0.5625 2.257812 0.582031 2.046875 0.6875 1.859375 C 0.789062 1.679688 0.957031 1.566406 1.1875 1.515625 L 13.359375 -1.515625 C 13.585938 -1.566406 13.789062 -1.535156 13.96875 -1.421875 C 14.144531 -1.316406 14.265625 -1.144531 14.328125 -0.90625 L 16.140625 6.375 C 16.191406 6.601562 16.175781 6.796875 16.09375 6.953125 C 16.007812 7.109375 15.863281 7.210938 15.65625 7.265625 C 15.445312 7.316406 15.269531 7.289062 15.125 7.1875 C 14.976562 7.09375 14.878906 6.929688 14.828125 6.703125 L 13.203125 0.1875 L 8.4375 1.375 L 9.953125 7.5 C 10.015625 7.726562 10 7.921875 9.90625 8.078125 C 9.820312 8.234375 9.675781 8.335938 9.46875 8.390625 C 9.257812 8.441406 9.082031 8.414062 8.9375 8.3125 C 8.789062 8.21875 8.6875 8.054688 8.625 7.828125 L 7.109375 1.703125 L 2.125 2.9375 L 3.75 9.453125 C 3.800781 9.679688 3.785156 9.875 3.703125 10.03125 C 3.628906 10.1875 3.488281 10.289062 3.28125 10.34375 C 3.0625 10.394531 2.878906 10.367188 2.734375 10.265625 C 2.585938 10.171875 2.488281 10.007812 2.4375 9.78125 Z M 0.625 2.5 "/></g></g></g><g fill="#31302c" fill-opacity="1"><g transform="translate(23.192439, 246.969797)"><g/></g></g><g fill="#31302c" fill-opacity="1"><g transform="translate(32.247827, 266.899626)"><g><path d="M 7.046875 9.671875 C 6.992188 9.898438 6.875 10.070312 6.6875 10.1875 C 6.53125 10.28125 6.347656 10.300781 6.140625 10.25 C 5.929688 10.195312 5.773438 10.085938 5.671875 9.921875 C 5.585938 9.765625 5.566406 9.566406 5.609375 9.328125 L 7.5 -0.4375 L 2.34375 2.5625 C 2.125 2.6875 1.910156 2.722656 1.703125 2.671875 C 1.492188 2.617188 1.328125 2.484375 1.203125 2.265625 C 1.078125 2.046875 1.039062 1.832031 1.09375 1.625 C 1.15625 1.425781 1.296875 1.265625 1.515625 1.140625 L 12.4375 -5.203125 C 12.664062 -5.335938 12.878906 -5.378906 13.078125 -5.328125 C 13.285156 -5.273438 13.453125 -5.140625 13.578125 -4.921875 C 13.703125 -4.703125 13.738281 -4.488281 13.6875 -4.28125 C 13.632812 -4.082031 13.492188 -3.914062 13.265625 -3.78125 L 8.296875 -0.890625 L 17.390625 2.078125 C 17.585938 2.128906 17.738281 2.242188 17.84375 2.421875 C 17.9375 2.585938 17.953125 2.773438 17.890625 2.984375 C 17.828125 3.191406 17.71875 3.34375 17.5625 3.4375 C 17.382812 3.539062 17.179688 3.554688 16.953125 3.484375 L 8.78125 0.75 Z M 7.046875 9.671875 "/></g></g></g><g fill="#31302c" fill-opacity="1"><g transform="translate(48.205116, 291.450438)"><g><path d="M 1.515625 2.078125 C 1.359375 1.878906 1.289062 1.675781 1.3125 1.46875 C 1.34375 1.257812 1.457031 1.078125 1.65625 0.921875 L 11.5625 -6.921875 C 11.769531 -7.085938 11.976562 -7.160156 12.1875 -7.140625 C 12.40625 -7.117188 12.59375 -7.007812 12.75 -6.8125 C 12.90625 -6.625 12.96875 -6.421875 12.9375 -6.203125 C 12.914062 -5.992188 12.800781 -5.804688 12.59375 -5.640625 L 2.6875 2.203125 C 2.488281 2.359375 2.28125 2.421875 2.0625 2.390625 C 1.851562 2.367188 1.671875 2.265625 1.515625 2.078125 Z M 1.515625 2.078125 "/></g></g></g><g fill="#31302c" fill-opacity="1"><g transform="translate(62.479412, 307.983384)"><g><path d="M 4.265625 4.1875 C 4.085938 4.007812 3.992188 3.8125 3.984375 3.59375 C 3.972656 3.382812 4.050781 3.191406 4.21875 3.015625 L 12.484375 -5.671875 L 9.375 -8.640625 C 9.195312 -8.804688 9.101562 -8.976562 9.09375 -9.15625 C 9.082031 -9.332031 9.15625 -9.503906 9.3125 -9.671875 C 9.46875 -9.835938 9.632812 -9.914062 9.8125 -9.90625 C 9.988281 -9.90625 10.164062 -9.820312 10.34375 -9.65625 L 17.796875 -2.5625 C 17.960938 -2.394531 18.050781 -2.222656 18.0625 -2.046875 C 18.082031 -1.867188 18.015625 -1.695312 17.859375 -1.53125 C 17.703125 -1.363281 17.53125 -1.28125 17.34375 -1.28125 C 17.164062 -1.289062 16.992188 -1.378906 16.828125 -1.546875 L 13.703125 -4.515625 L 5.4375 4.171875 C 5.269531 4.347656 5.082031 4.4375 4.875 4.4375 C 4.664062 4.445312 4.460938 4.363281 4.265625 4.1875 Z M 4.265625 4.1875 "/></g></g></g><g fill="#31302c" fill-opacity="1"><g transform="translate(84.235079, 326.862397)"><g><path d="M 6.3125 4.46875 C 5.207031 3.71875 4.410156 2.828125 3.921875 1.796875 C 3.441406 0.765625 3.289062 -0.34375 3.46875 -1.53125 C 3.644531 -2.726562 4.148438 -3.941406 4.984375 -5.171875 C 5.804688 -6.390625 6.738281 -7.300781 7.78125 -7.90625 C 8.820312 -8.519531 9.910156 -8.789062 11.046875 -8.71875 C 12.191406 -8.644531 13.316406 -8.234375 14.421875 -7.484375 C 15.160156 -6.984375 15.773438 -6.390625 16.265625 -5.703125 C 16.765625 -5.023438 17.109375 -4.300781 17.296875 -3.53125 C 17.359375 -3.238281 17.316406 -2.988281 17.171875 -2.78125 C 17.066406 -2.625 16.929688 -2.515625 16.765625 -2.453125 C 16.597656 -2.390625 16.453125 -2.398438 16.328125 -2.484375 C 16.191406 -2.578125 16.070312 -2.75 15.96875 -3 C 15.695312 -3.820312 15.390625 -4.472656 15.046875 -4.953125 C 14.710938 -5.441406 14.242188 -5.890625 13.640625 -6.296875 C 12.367188 -7.160156 11.101562 -7.410156 9.84375 -7.046875 C 8.59375 -6.691406 7.445312 -5.75 6.40625 -4.21875 C 5.351562 -2.664062 4.890625 -1.234375 5.015625 0.078125 C 5.140625 1.390625 5.835938 2.476562 7.109375 3.34375 C 7.703125 3.738281 8.289062 4 8.875 4.125 C 9.46875 4.257812 10.191406 4.300781 11.046875 4.25 C 11.316406 4.25 11.519531 4.296875 11.65625 4.390625 C 11.78125 4.472656 11.847656 4.597656 11.859375 4.765625 C 11.878906 4.941406 11.832031 5.109375 11.71875 5.265625 C 11.570312 5.492188 11.351562 5.632812 11.0625 5.6875 C 10.269531 5.789062 9.460938 5.738281 8.640625 5.53125 C 7.828125 5.320312 7.050781 4.96875 6.3125 4.46875 Z M 6.3125 4.46875 "/></g></g></g><g fill="#31302c" fill-opacity="1"><g transform="translate(110.187757, 342.753018)"><g><path d="M 17.34375 -7.796875 C 17.570312 -7.691406 17.71875 -7.539062 17.78125 -7.34375 C 17.851562 -7.15625 17.835938 -6.941406 17.734375 -6.703125 L 12.5625 4.828125 C 12.457031 5.054688 12.3125 5.207031 12.125 5.28125 C 11.9375 5.363281 11.726562 5.351562 11.5 5.25 C 11.269531 5.144531 11.113281 4.992188 11.03125 4.796875 C 10.957031 4.597656 10.972656 4.382812 11.078125 4.15625 L 13.421875 -1.078125 L 5.703125 -4.53125 L 3.359375 0.703125 C 3.253906 0.929688 3.109375 1.082031 2.921875 1.15625 C 2.734375 1.226562 2.523438 1.21875 2.296875 1.125 C 2.054688 1.007812 1.898438 0.859375 1.828125 0.671875 C 1.765625 0.484375 1.785156 0.273438 1.890625 0.046875 L 7.0625 -11.484375 C 7.164062 -11.722656 7.3125 -11.882812 7.5 -11.96875 C 7.6875 -12.050781 7.898438 -12.035156 8.140625 -11.921875 C 8.367188 -11.828125 8.515625 -11.679688 8.578125 -11.484375 C 8.648438 -11.285156 8.632812 -11.066406 8.53125 -10.828125 L 6.28125 -5.8125 L 14 -2.359375 L 16.25 -7.375 C 16.351562 -7.613281 16.503906 -7.769531 16.703125 -7.84375 C 16.898438 -7.914062 17.113281 -7.898438 17.34375 -7.796875 Z M 17.34375 -7.796875 "/></g></g></g><g fill="#31302c" fill-opacity="1"><g transform="translate(140.01154, 354.394489)"><g><path d="M 2.5 0.640625 C 2.257812 0.578125 2.082031 0.457031 1.96875 0.28125 C 1.851562 0.101562 1.828125 -0.0976562 1.890625 -0.328125 L 5.015625 -12.46875 C 5.078125 -12.695312 5.203125 -12.863281 5.390625 -12.96875 C 5.578125 -13.070312 5.789062 -13.09375 6.03125 -13.03125 L 13.296875 -11.15625 C 13.523438 -11.09375 13.6875 -10.988281 13.78125 -10.84375 C 13.882812 -10.695312 13.910156 -10.519531 13.859375 -10.3125 C 13.804688 -10.101562 13.695312 -9.957031 13.53125 -9.875 C 13.375 -9.789062 13.179688 -9.78125 12.953125 -9.84375 L 6.4375 -11.515625 L 5.21875 -6.765625 L 11.328125 -5.1875 C 11.566406 -5.132812 11.734375 -5.03125 11.828125 -4.875 C 11.929688 -4.71875 11.957031 -4.535156 11.90625 -4.328125 C 11.84375 -4.117188 11.734375 -3.972656 11.578125 -3.890625 C 11.421875 -3.816406 11.222656 -3.804688 10.984375 -3.859375 L 4.875 -5.4375 L 3.59375 -0.46875 L 10.109375 1.203125 C 10.335938 1.265625 10.5 1.363281 10.59375 1.5 C 10.695312 1.644531 10.722656 1.820312 10.671875 2.03125 C 10.617188 2.25 10.507812 2.398438 10.34375 2.484375 C 10.1875 2.566406 9.992188 2.578125 9.765625 2.515625 Z M 2.5 0.640625 "/></g></g></g><g fill="#31302c" fill-opacity="1"><g transform="translate(167.900408, 360.259515)"><g><path d="M 13.453125 -13.140625 C 13.691406 -13.117188 13.867188 -13.023438 13.984375 -12.859375 C 14.109375 -12.691406 14.160156 -12.476562 14.140625 -12.21875 L 13.078125 0.375 C 13.054688 0.625 12.96875 0.816406 12.8125 0.953125 C 12.65625 1.085938 12.453125 1.144531 12.203125 1.125 C 11.941406 1.101562 11.726562 0.976562 11.5625 0.75 L 4.21875 -11.03125 L 3.328125 -0.453125 C 3.304688 -0.203125 3.21875 -0.0078125 3.0625 0.125 C 2.90625 0.257812 2.707031 0.320312 2.46875 0.3125 C 2.238281 0.289062 2.066406 0.195312 1.953125 0.03125 C 1.835938 -0.132812 1.789062 -0.34375 1.8125 -0.59375 L 2.875 -13.1875 C 2.894531 -13.445312 2.976562 -13.644531 3.125 -13.78125 C 3.28125 -13.914062 3.484375 -13.972656 3.734375 -13.953125 C 3.992188 -13.929688 4.207031 -13.800781 4.375 -13.5625 L 11.703125 -1.78125 L 12.59375 -12.359375 C 12.613281 -12.617188 12.703125 -12.816406 12.859375 -12.953125 C 13.015625 -13.085938 13.210938 -13.148438 13.453125 -13.140625 Z M 13.453125 -13.140625 "/></g></g></g><g fill="#31302c" fill-opacity="1"><g transform="translate(199.41251, 361.32039)"><g/></g></g><g fill="#31302c" fill-opacity="1"><g transform="translate(221.193248, 358.992659)"><g><path d="M 12.4375 -3.671875 C 12.601562 -3.554688 12.703125 -3.410156 12.734375 -3.234375 C 12.765625 -3.078125 12.722656 -2.910156 12.609375 -2.734375 C 12.503906 -2.566406 12.363281 -2.460938 12.1875 -2.421875 C 12 -2.390625 11.816406 -2.429688 11.640625 -2.546875 L 9.453125 -4.03125 C 9.003906 -3.226562 8.4375 -2.566406 7.75 -2.046875 C 7.0625 -1.535156 6.300781 -1.191406 5.46875 -1.015625 C 4.613281 -0.835938 3.820312 -0.820312 3.09375 -0.96875 C 2.363281 -1.125 1.753906 -1.4375 1.265625 -1.90625 C 0.773438 -2.375 0.453125 -2.96875 0.296875 -3.6875 C 0.109375 -4.550781 0.207031 -5.375 0.59375 -6.15625 C 0.988281 -6.945312 1.664062 -7.773438 2.625 -8.640625 C 1.925781 -9.117188 1.390625 -9.570312 1.015625 -10 C 0.648438 -10.4375 0.40625 -10.929688 0.28125 -11.484375 C 0.0820312 -12.429688 0.242188 -13.238281 0.765625 -13.90625 C 1.296875 -14.582031 2.046875 -15.019531 3.015625 -15.21875 C 3.960938 -15.425781 4.769531 -15.335938 5.4375 -14.953125 C 6.113281 -14.578125 6.539062 -13.960938 6.71875 -13.109375 C 6.863281 -12.410156 6.773438 -11.738281 6.453125 -11.09375 C 6.140625 -10.445312 5.578125 -9.722656 4.765625 -8.921875 L 8.8125 -6.140625 C 9.050781 -7.179688 9.070312 -8.367188 8.875 -9.703125 C 8.832031 -9.953125 8.867188 -10.148438 8.984375 -10.296875 C 9.097656 -10.441406 9.25 -10.535156 9.4375 -10.578125 C 9.632812 -10.617188 9.8125 -10.585938 9.96875 -10.484375 C 10.132812 -10.378906 10.238281 -10.203125 10.28125 -9.953125 C 10.507812 -8.234375 10.410156 -6.691406 9.984375 -5.328125 Z M 3.3125 -14.015625 C 2.75 -13.890625 2.320312 -13.625 2.03125 -13.21875 C 1.75 -12.820312 1.664062 -12.347656 1.78125 -11.796875 C 1.863281 -11.398438 2.050781 -11.039062 2.34375 -10.71875 C 2.644531 -10.40625 3.09375 -10.050781 3.6875 -9.65625 C 4.375 -10.34375 4.84375 -10.910156 5.09375 -11.359375 C 5.351562 -11.816406 5.4375 -12.273438 5.34375 -12.734375 C 5.238281 -13.222656 5 -13.582031 4.625 -13.8125 C 4.257812 -14.050781 3.820312 -14.117188 3.3125 -14.015625 Z M 5.25 -2.328125 C 5.90625 -2.460938 6.5 -2.734375 7.03125 -3.140625 C 7.5625 -3.554688 7.992188 -4.101562 8.328125 -4.78125 L 3.6875 -7.90625 C 2.851562 -7.125 2.300781 -6.441406 2.03125 -5.859375 C 1.769531 -5.285156 1.703125 -4.679688 1.828125 -4.046875 C 1.984375 -3.328125 2.367188 -2.8125 2.984375 -2.5 C 3.609375 -2.195312 4.363281 -2.140625 5.25 -2.328125 Z M 5.25 -2.328125 "/></g></g></g><g fill="#31302c" fill-opacity="1"><g transform="translate(250.350002, 351.353439)"><g><path d="M 7.25 -2.71875 C 6.007812 -2.226562 4.828125 -2.066406 3.703125 -2.234375 C 2.578125 -2.410156 1.566406 -2.90625 0.671875 -3.71875 C -0.210938 -4.539062 -0.929688 -5.644531 -1.484375 -7.03125 C -2.023438 -8.394531 -2.253906 -9.675781 -2.171875 -10.875 C -2.085938 -12.082031 -1.695312 -13.132812 -1 -14.03125 C -0.300781 -14.9375 0.664062 -15.632812 1.90625 -16.125 C 2.738281 -16.457031 3.578125 -16.632812 4.421875 -16.65625 C 5.265625 -16.6875 6.0625 -16.566406 6.8125 -16.296875 C 7.082031 -16.171875 7.265625 -15.988281 7.359375 -15.75 C 7.429688 -15.570312 7.441406 -15.398438 7.390625 -15.234375 C 7.347656 -15.066406 7.257812 -14.957031 7.125 -14.90625 C 6.96875 -14.84375 6.757812 -14.835938 6.5 -14.890625 C 5.664062 -15.140625 4.953125 -15.257812 4.359375 -15.25 C 3.773438 -15.238281 3.144531 -15.101562 2.46875 -14.84375 C 1.03125 -14.269531 0.109375 -13.359375 -0.296875 -12.109375 C -0.703125 -10.859375 -0.5625 -9.375 0.125 -7.65625 C 0.8125 -5.914062 1.726562 -4.726562 2.875 -4.09375 C 4.03125 -3.46875 5.328125 -3.441406 6.765625 -4.015625 C 7.421875 -4.273438 7.96875 -4.609375 8.40625 -5.015625 C 8.84375 -5.429688 9.28125 -6.015625 9.71875 -6.765625 C 9.875 -6.984375 10.03125 -7.125 10.1875 -7.1875 C 10.320312 -7.238281 10.460938 -7.21875 10.609375 -7.125 C 10.765625 -7.039062 10.878906 -6.90625 10.953125 -6.71875 C 11.054688 -6.46875 11.046875 -6.210938 10.921875 -5.953125 C 10.554688 -5.242188 10.0625 -4.609375 9.4375 -4.046875 C 8.8125 -3.492188 8.082031 -3.050781 7.25 -2.71875 Z M 7.25 -2.71875 "/></g></g></g><g fill="#31302c" fill-opacity="1"><g transform="translate(278.068665, 338.819135)"><g><path d="M 11.359375 -8.078125 C 11.460938 -8.015625 11.546875 -7.925781 11.609375 -7.8125 C 11.710938 -7.644531 11.726562 -7.46875 11.65625 -7.28125 C 11.59375 -7.09375 11.472656 -6.941406 11.296875 -6.828125 C 11.015625 -6.648438 10.734375 -6.660156 10.453125 -6.859375 L 7.546875 -8.890625 L 1.125 -4.9375 L 1.5625 -1.40625 C 1.625 -1.070312 1.507812 -0.816406 1.21875 -0.640625 C 1.039062 -0.535156 0.847656 -0.5 0.640625 -0.53125 C 0.429688 -0.5625 0.273438 -0.660156 0.171875 -0.828125 C 0.117188 -0.921875 0.0859375 -1.023438 0.078125 -1.140625 L -1.703125 -15 C -1.742188 -15.207031 -1.71875 -15.390625 -1.625 -15.546875 C -1.539062 -15.710938 -1.421875 -15.84375 -1.265625 -15.9375 C -1.085938 -16.050781 -0.90625 -16.101562 -0.71875 -16.09375 C -0.53125 -16.09375 -0.351562 -16.039062 -0.1875 -15.9375 Z M 0.90625 -6.40625 L 6.3125 -9.734375 L -0.15625 -14.1875 Z M 0.90625 -6.40625 "/></g></g></g><g fill="#31302c" fill-opacity="1"><g transform="translate(304.024592, 321.119044)"><g><path d="M 2.515625 -11.890625 C 3.265625 -12.273438 4 -12.390625 4.71875 -12.234375 C 5.445312 -12.085938 6.101562 -11.679688 6.6875 -11.015625 C 7.507812 -10.085938 7.832031 -9.109375 7.65625 -8.078125 C 7.488281 -7.046875 6.84375 -6.035156 5.71875 -5.046875 L 1.9375 -1.703125 C 1.75 -1.535156 1.546875 -1.457031 1.328125 -1.46875 C 1.117188 -1.476562 0.9375 -1.570312 0.78125 -1.75 L -7.5 -11.15625 C -7.664062 -11.332031 -7.738281 -11.523438 -7.71875 -11.734375 C -7.695312 -11.941406 -7.59375 -12.128906 -7.40625 -12.296875 L -3.796875 -15.5 C -2.703125 -16.457031 -1.640625 -16.960938 -0.609375 -17.015625 C 0.410156 -17.066406 1.3125 -16.648438 2.09375 -15.765625 C 2.59375 -15.191406 2.875 -14.566406 2.9375 -13.890625 C 3.007812 -13.222656 2.867188 -12.554688 2.515625 -11.890625 Z M -2.6875 -8.109375 L 0.171875 -10.640625 C 0.960938 -11.335938 1.421875 -12.023438 1.546875 -12.703125 C 1.671875 -13.378906 1.460938 -14.019531 0.921875 -14.625 C -0.140625 -15.832031 -1.472656 -15.734375 -3.078125 -14.328125 L -5.9375 -11.796875 Z M 4.6875 -5.953125 C 5.53125 -6.691406 6.015625 -7.390625 6.140625 -8.046875 C 6.265625 -8.703125 6.035156 -9.359375 5.453125 -10.015625 C 4.304688 -11.304688 2.921875 -11.234375 1.296875 -9.796875 L -1.78125 -7.078125 L 1.609375 -3.234375 Z M 4.6875 -5.953125 "/></g></g></g><g fill="#31302c" fill-opacity="1"><g transform="translate(325.642952, 300.013836)"><g><path d="M 1.734375 -1.890625 C 1.566406 -1.703125 1.375 -1.597656 1.15625 -1.578125 C 0.945312 -1.566406 0.75 -1.640625 0.5625 -1.796875 L -9.078125 -9.96875 C -9.273438 -10.132812 -9.382812 -10.320312 -9.40625 -10.53125 C -9.4375 -10.75 -9.367188 -10.953125 -9.203125 -11.140625 C -9.046875 -11.335938 -8.859375 -11.441406 -8.640625 -11.453125 C -8.421875 -11.472656 -8.210938 -11.398438 -8.015625 -11.234375 L 1.625 -3.0625 C 1.8125 -2.90625 1.914062 -2.71875 1.9375 -2.5 C 1.957031 -2.289062 1.890625 -2.085938 1.734375 -1.890625 Z M 1.734375 -1.890625 "/></g></g></g><g fill="#31302c" fill-opacity="1"><g transform="translate(339.094949, 282.747536)"><g><path d="M -5.625 -17.9375 C -5.5 -18.132812 -5.335938 -18.25 -5.140625 -18.28125 C -4.953125 -18.320312 -4.742188 -18.273438 -4.515625 -18.140625 L 6.234375 -11.5 C 6.441406 -11.363281 6.570312 -11.195312 6.625 -11 C 6.6875 -10.800781 6.65625 -10.597656 6.53125 -10.390625 C 6.382812 -10.171875 6.171875 -10.035156 5.890625 -9.984375 L -7.953125 -8.765625 L 1.09375 -3.1875 C 1.300781 -3.050781 1.429688 -2.882812 1.484375 -2.6875 C 1.546875 -2.488281 1.515625 -2.285156 1.390625 -2.078125 C 1.265625 -1.878906 1.101562 -1.757812 0.90625 -1.71875 C 0.707031 -1.6875 0.503906 -1.738281 0.296875 -1.875 L -10.453125 -8.515625 C -10.679688 -8.648438 -10.820312 -8.8125 -10.875 -9 C -10.925781 -9.195312 -10.882812 -9.410156 -10.75 -9.640625 C -10.613281 -9.859375 -10.398438 -9.988281 -10.109375 -10.03125 L 3.6875 -11.25 L -5.328125 -16.828125 C -5.554688 -16.960938 -5.695312 -17.128906 -5.75 -17.328125 C -5.800781 -17.523438 -5.757812 -17.726562 -5.625 -17.9375 Z M -5.625 -17.9375 "/></g></g></g><g fill="#31302c" fill-opacity="1"><g transform="translate(354.379795, 255.052107)"><g><path d="M 0.96875 -2.390625 C 0.875 -2.160156 0.726562 -2.003906 0.53125 -1.921875 C 0.34375 -1.835938 0.140625 -1.835938 -0.078125 -1.921875 L -11.6875 -6.640625 C -11.914062 -6.722656 -12.066406 -6.863281 -12.140625 -7.0625 C -12.222656 -7.257812 -12.21875 -7.472656 -12.125 -7.703125 L -9.296875 -14.65625 C -9.210938 -14.875 -9.085938 -15.019531 -8.921875 -15.09375 C -8.753906 -15.175781 -8.570312 -15.175781 -8.375 -15.09375 C -8.175781 -15.019531 -8.046875 -14.894531 -7.984375 -14.71875 C -7.929688 -14.550781 -7.945312 -14.359375 -8.03125 -14.140625 L -10.5625 -7.90625 L -6.015625 -6.0625 L -3.640625 -11.921875 C -3.554688 -12.140625 -3.429688 -12.285156 -3.265625 -12.359375 C -3.097656 -12.441406 -2.914062 -12.445312 -2.71875 -12.375 C -2.519531 -12.289062 -2.390625 -12.160156 -2.328125 -11.984375 C -2.273438 -11.816406 -2.289062 -11.625 -2.375 -11.40625 L -4.75 -5.546875 L 0 -3.625 L 2.53125 -9.859375 C 2.613281 -10.078125 2.734375 -10.222656 2.890625 -10.296875 C 3.054688 -10.378906 3.238281 -10.382812 3.4375 -10.3125 C 3.644531 -10.226562 3.773438 -10.097656 3.828125 -9.921875 C 3.890625 -9.753906 3.878906 -9.5625 3.796875 -9.34375 Z M 0.96875 -2.390625 "/></g></g></g><g fill="#31302c" fill-opacity="1"><g transform="translate(363.844076, 228.22332)"><g><path d="M 1.4375 -5.8125 C 1.375 -5.570312 1.253906 -5.390625 1.078125 -5.265625 C 0.898438 -5.148438 0.6875 -5.125 0.4375 -5.1875 L -11.234375 -7.859375 L -12.203125 -3.671875 C -12.253906 -3.429688 -12.351562 -3.257812 -12.5 -3.15625 C -12.65625 -3.050781 -12.84375 -3.023438 -13.0625 -3.078125 C -13.289062 -3.128906 -13.445312 -3.234375 -13.53125 -3.390625 C -13.613281 -3.554688 -13.628906 -3.757812 -13.578125 -4 L -11.28125 -14.015625 C -11.21875 -14.242188 -11.113281 -14.40625 -10.96875 -14.5 C -10.832031 -14.601562 -10.648438 -14.628906 -10.421875 -14.578125 C -10.203125 -14.523438 -10.046875 -14.421875 -9.953125 -14.265625 C -9.859375 -14.109375 -9.84375 -13.914062 -9.90625 -13.6875 L -10.859375 -9.484375 L 0.8125 -6.8125 C 1.0625 -6.75 1.238281 -6.628906 1.34375 -6.453125 C 1.457031 -6.285156 1.488281 -6.070312 1.4375 -5.8125 Z M 1.4375 -5.8125 "/></g></g></g><g fill="#31302c" fill-opacity="1"><g transform="translate(369.069501, 199.838573)"><g><path d="M -13.46875 -15 C -13.457031 -15.25 -13.367188 -15.4375 -13.203125 -15.5625 C -13.046875 -15.695312 -12.835938 -15.757812 -12.578125 -15.75 L 0.078125 -15.09375 C 0.316406 -15.082031 0.503906 -15.007812 0.640625 -14.875 C 0.773438 -14.738281 0.835938 -14.550781 0.828125 -14.3125 C 0.816406 -14.070312 0.734375 -13.890625 0.578125 -13.765625 C 0.429688 -13.648438 0.238281 -13.597656 0 -13.609375 L -10.21875 -14.140625 L -2.140625 -9.375 C -1.753906 -9.164062 -1.566406 -8.882812 -1.578125 -8.53125 C -1.597656 -8.175781 -1.8125 -7.910156 -2.21875 -7.734375 L -10.65625 -3.8125 L -0.53125 -3.28125 C -0.289062 -3.269531 -0.101562 -3.195312 0.03125 -3.0625 C 0.164062 -2.925781 0.226562 -2.738281 0.21875 -2.5 C 0.207031 -2.257812 0.128906 -2.078125 -0.015625 -1.953125 C -0.171875 -1.828125 -0.367188 -1.769531 -0.609375 -1.78125 L -13.265625 -2.4375 C -13.523438 -2.445312 -13.726562 -2.53125 -13.875 -2.6875 C -14.019531 -2.84375 -14.085938 -3.046875 -14.078125 -3.296875 C -14.054688 -3.628906 -13.847656 -3.882812 -13.453125 -4.0625 L -3.453125 -8.640625 L -12.9375 -14.171875 C -13.144531 -14.285156 -13.285156 -14.40625 -13.359375 -14.53125 C -13.441406 -14.664062 -13.476562 -14.820312 -13.46875 -15 Z M -13.46875 -15 "/></g></g></g><g fill="#31302c" fill-opacity="1"><g transform="translate(369.164461, 166.09653)"><g><path d="M -2.734375 -13.65625 C -2.640625 -13.71875 -2.53125 -13.757812 -2.40625 -13.78125 C -2.207031 -13.8125 -2.035156 -13.757812 -1.890625 -13.625 C -1.742188 -13.488281 -1.65625 -13.316406 -1.625 -13.109375 C -1.582031 -12.773438 -1.707031 -12.519531 -2 -12.34375 L -5.03125 -10.515625 L -4.046875 -3.03125 L -0.640625 -2.015625 C -0.316406 -1.929688 -0.128906 -1.71875 -0.078125 -1.375 C -0.0546875 -1.164062 -0.101562 -0.972656 -0.21875 -0.796875 C -0.34375 -0.617188 -0.503906 -0.519531 -0.703125 -0.5 C -0.804688 -0.476562 -0.90625 -0.488281 -1 -0.53125 L -14.40625 -4.5625 C -14.59375 -4.613281 -14.742188 -4.707031 -14.859375 -4.84375 C -14.972656 -4.988281 -15.046875 -5.15625 -15.078125 -5.34375 C -15.097656 -5.550781 -15.066406 -5.738281 -14.984375 -5.90625 C -14.898438 -6.082031 -14.785156 -6.222656 -14.640625 -6.328125 Z M -5.46875 -3.4375 L -6.296875 -9.71875 L -13.015625 -5.65625 Z M -5.46875 -3.4375 "/></g></g></g><g fill="#31302c" fill-opacity="1"><g transform="translate(363.58528, 135.196964)"><g><path d="M -4.6875 -11.015625 C -4.582031 -11.222656 -4.425781 -11.363281 -4.21875 -11.4375 C -4.039062 -11.488281 -3.859375 -11.460938 -3.671875 -11.359375 C -3.484375 -11.253906 -3.359375 -11.109375 -3.296875 -10.921875 C -3.242188 -10.753906 -3.269531 -10.5625 -3.375 -10.34375 L -7.40625 -1.25 L -1.703125 -3.015625 C -1.460938 -3.085938 -1.25 -3.078125 -1.0625 -2.984375 C -0.875 -2.890625 -0.738281 -2.722656 -0.65625 -2.484375 C -0.582031 -2.242188 -0.597656 -2.03125 -0.703125 -1.84375 C -0.804688 -1.65625 -0.976562 -1.523438 -1.21875 -1.453125 L -13.296875 2.28125 C -13.546875 2.363281 -13.757812 2.351562 -13.9375 2.25 C -14.125 2.15625 -14.253906 1.988281 -14.328125 1.75 C -14.410156 1.507812 -14.398438 1.296875 -14.296875 1.109375 C -14.203125 0.929688 -14.03125 0.800781 -13.78125 0.71875 L -8.28125 -0.984375 L -16.46875 -5.921875 C -16.644531 -6.015625 -16.765625 -6.160156 -16.828125 -6.359375 C -16.890625 -6.546875 -16.867188 -6.734375 -16.765625 -6.921875 C -16.660156 -7.109375 -16.519531 -7.226562 -16.34375 -7.28125 C -16.144531 -7.34375 -15.941406 -7.316406 -15.734375 -7.203125 L -8.390625 -2.703125 Z M -4.6875 -11.015625 "/></g></g></g><g fill="#31302c" fill-opacity="1"><g transform="translate(353.565816, 107.568297)"><g><path d="M -1.140625 -2.3125 C -1.035156 -2.082031 -1.015625 -1.867188 -1.078125 -1.671875 C -1.140625 -1.472656 -1.28125 -1.316406 -1.5 -1.203125 L -12.71875 4.375 C -12.925781 4.476562 -13.128906 4.492188 -13.328125 4.421875 C -13.523438 4.359375 -13.675781 4.210938 -13.78125 3.984375 L -17.125 -2.71875 C -17.226562 -2.9375 -17.257812 -3.132812 -17.21875 -3.3125 C -17.175781 -3.488281 -17.054688 -3.625 -16.859375 -3.71875 C -16.671875 -3.8125 -16.488281 -3.820312 -16.3125 -3.75 C -16.144531 -3.6875 -16.007812 -3.546875 -15.90625 -3.328125 L -12.921875 2.6875 L -8.53125 0.5 L -11.34375 -5.15625 C -11.445312 -5.375 -11.472656 -5.570312 -11.421875 -5.75 C -11.367188 -5.925781 -11.25 -6.0625 -11.0625 -6.15625 C -10.863281 -6.25 -10.679688 -6.257812 -10.515625 -6.1875 C -10.359375 -6.125 -10.226562 -5.984375 -10.125 -5.765625 L -7.3125 -0.109375 L -2.71875 -2.390625 L -5.703125 -8.40625 C -5.804688 -8.625 -5.835938 -8.816406 -5.796875 -8.984375 C -5.753906 -9.160156 -5.632812 -9.296875 -5.4375 -9.390625 C -5.25 -9.492188 -5.066406 -9.507812 -4.890625 -9.4375 C -4.722656 -9.375 -4.585938 -9.234375 -4.484375 -9.015625 Z M -1.140625 -2.3125 "/></g></g></g><g fill="#31302c" fill-opacity="1"><g transform="translate(339.73049, 82.673438)"><g><path d="M -8.15625 -9.546875 C -8.09375 -9.703125 -8 -9.828125 -7.875 -9.921875 C -7.71875 -10.035156 -7.539062 -10.070312 -7.34375 -10.03125 C -7.15625 -9.988281 -7.003906 -9.882812 -6.890625 -9.71875 C -6.703125 -9.46875 -6.664062 -9.1875 -6.78125 -8.875 L -8.65625 -4.234375 C -8.882812 -3.628906 -8.972656 -3.113281 -8.921875 -2.6875 C -8.867188 -2.257812 -8.65625 -1.785156 -8.28125 -1.265625 L -6.796875 0.78125 L -2.5625 -2.28125 C -2.363281 -2.4375 -2.160156 -2.5 -1.953125 -2.46875 C -1.742188 -2.445312 -1.566406 -2.335938 -1.421875 -2.140625 C -1.273438 -1.929688 -1.222656 -1.722656 -1.265625 -1.515625 C -1.304688 -1.316406 -1.425781 -1.140625 -1.625 -0.984375 L -11.828125 6.390625 C -12.023438 6.523438 -12.222656 6.578125 -12.421875 6.546875 C -12.628906 6.515625 -12.804688 6.394531 -12.953125 6.1875 L -15.859375 2.171875 C -16.765625 0.921875 -17.175781 -0.226562 -17.09375 -1.28125 C -17.019531 -2.34375 -16.445312 -3.257812 -15.375 -4.03125 C -14.46875 -4.695312 -13.550781 -4.960938 -12.625 -4.828125 C -11.695312 -4.703125 -10.816406 -4.191406 -9.984375 -3.296875 C -10.085938 -3.640625 -10.117188 -3.988281 -10.078125 -4.34375 C -10.046875 -4.695312 -9.9375 -5.113281 -9.75 -5.59375 Z M -10.28125 -1.703125 C -10.914062 -2.585938 -11.570312 -3.113281 -12.25 -3.28125 C -12.9375 -3.457031 -13.660156 -3.273438 -14.421875 -2.734375 C -15.148438 -2.203125 -15.539062 -1.59375 -15.59375 -0.90625 C -15.644531 -0.21875 -15.34375 0.578125 -14.6875 1.484375 L -12.3125 4.765625 L -7.90625 1.578125 Z M -10.28125 -1.703125 "/></g></g></g><g fill="#31302c" fill-opacity="1"><g transform="translate(320.654225, 58.793549)"><g><path d="M -4.34375 -4.5 C -3.632812 -3.789062 -3.054688 -3.007812 -2.609375 -2.15625 C -2.160156 -1.3125 -1.921875 -0.515625 -1.890625 0.234375 C -1.878906 0.515625 -1.972656 0.753906 -2.171875 0.953125 C -2.304688 1.085938 -2.460938 1.164062 -2.640625 1.1875 C -2.816406 1.21875 -2.957031 1.179688 -3.0625 1.078125 C -3.1875 0.953125 -3.265625 0.769531 -3.296875 0.53125 C -3.492188 -1.039062 -4.160156 -2.382812 -5.296875 -3.5 C -6.117188 -4.300781 -6.90625 -4.757812 -7.65625 -4.875 C -8.40625 -4.988281 -9.066406 -4.757812 -9.640625 -4.1875 C -9.960938 -3.851562 -10.117188 -3.476562 -10.109375 -3.0625 C -10.097656 -2.644531 -9.984375 -2.203125 -9.765625 -1.734375 C -9.554688 -1.273438 -9.222656 -0.695312 -8.765625 0 C -8.160156 0.945312 -7.707031 1.765625 -7.40625 2.453125 C -7.101562 3.148438 -6.976562 3.835938 -7.03125 4.515625 C -7.09375 5.191406 -7.421875 5.828125 -8.015625 6.421875 C -8.578125 6.984375 -9.226562 7.335938 -9.96875 7.484375 C -10.71875 7.628906 -11.488281 7.546875 -12.28125 7.234375 C -13.070312 6.921875 -13.820312 6.414062 -14.53125 5.71875 C -15.195312 5.0625 -15.71875 4.347656 -16.09375 3.578125 C -16.476562 2.804688 -16.679688 2.039062 -16.703125 1.28125 C -16.691406 0.976562 -16.597656 0.738281 -16.421875 0.5625 C -16.296875 0.425781 -16.144531 0.34375 -15.96875 0.3125 C -15.800781 0.289062 -15.664062 0.332031 -15.5625 0.4375 C -15.457031 0.539062 -15.367188 0.726562 -15.296875 1 C -15.191406 1.832031 -15.015625 2.519531 -14.765625 3.0625 C -14.515625 3.613281 -14.109375 4.164062 -13.546875 4.71875 C -12.765625 5.488281 -11.992188 5.925781 -11.234375 6.03125 C -10.472656 6.132812 -9.800781 5.890625 -9.21875 5.296875 C -8.726562 4.796875 -8.550781 4.226562 -8.6875 3.59375 C -8.820312 2.957031 -9.195312 2.160156 -9.8125 1.203125 C -10.46875 0.140625 -10.957031 -0.722656 -11.28125 -1.390625 C -11.601562 -2.054688 -11.753906 -2.726562 -11.734375 -3.40625 C -11.710938 -4.082031 -11.414062 -4.710938 -10.84375 -5.296875 C -10.289062 -5.867188 -9.644531 -6.210938 -8.90625 -6.328125 C -8.175781 -6.453125 -7.410156 -6.351562 -6.609375 -6.03125 C -5.816406 -5.71875 -5.0625 -5.207031 -4.34375 -4.5 Z M -4.34375 -4.5 "/></g></g></g><g fill="#31302c" fill-opacity="1"><g transform="translate(298.966791, 39.456348)"><g/></g></g><g fill="#31302c" fill-opacity="1"><g transform="translate(280.860426, 27.351089)"><g/></g></g><g clip-path="url(#a247ca53ce)"><g clip-path="url(#fcd183898c)"><g clip-path="url(#b74079e006)"><path fill="#31302c" d="M 54.355469 49.085938 L 56.910156 51.527344 C -15.085938 126.839844 -12.386719 246.6875 62.925781 318.683594 C 138.238281 390.683594 258.085938 387.984375 330.078125 312.671875 L 332.636719 315.117188 C 330.734375 317.101562 328.792969 319.046875 326.808594 320.949219 C 324.824219 322.851562 322.800781 324.710938 320.738281 326.527344 C 318.675781 328.34375 316.574219 330.113281 314.433594 331.839844 C 312.292969 333.566406 310.117188 335.242188 307.90625 336.875 C 305.695312 338.507812 303.449219 340.09375 301.171875 341.628906 C 298.890625 343.167969 296.582031 344.652344 294.238281 346.089844 C 291.894531 347.527344 289.523438 348.914062 287.121094 350.25 C 284.71875 351.585938 282.289062 352.871094 279.832031 354.101562 C 277.375 355.332031 274.890625 356.511719 272.382812 357.636719 C 269.875 358.761719 267.34375 359.835938 264.792969 360.851562 C 262.238281 361.867188 259.664062 362.832031 257.070312 363.738281 C 254.472656 364.644531 251.859375 365.496094 249.230469 366.289062 C 246.597656 367.085938 243.953125 367.824219 241.289062 368.503906 C 238.625 369.1875 235.949219 369.8125 233.261719 370.378906 C 230.570312 370.945312 227.871094 371.453125 225.160156 371.90625 C 222.445312 372.355469 219.726562 372.75 217 373.085938 C 214.269531 373.417969 211.535156 373.695312 208.796875 373.914062 C 206.054688 374.132812 203.3125 374.289062 200.566406 374.390625 C 197.820312 374.492188 195.070312 374.53125 192.324219 374.515625 C 189.574219 374.496094 186.828125 374.421875 184.082031 374.285156 C 181.335938 374.148438 178.59375 373.957031 175.859375 373.703125 C 173.121094 373.453125 170.390625 373.140625 167.667969 372.769531 C 164.941406 372.402344 162.226562 371.972656 159.523438 371.488281 C 156.816406 371.003906 154.125 370.460938 151.441406 369.859375 C 148.757812 369.257812 146.089844 368.597656 143.4375 367.882812 C 140.785156 367.167969 138.144531 366.394531 135.523438 365.566406 C 132.902344 364.738281 130.300781 363.855469 127.71875 362.917969 C 125.136719 361.976562 122.574219 360.980469 120.035156 359.933594 C 117.492188 358.882812 114.976562 357.78125 112.484375 356.621094 C 109.988281 355.464844 107.523438 354.253906 105.082031 352.992188 C 102.640625 351.730469 100.226562 350.414062 97.839844 349.046875 C 95.457031 347.683594 93.101562 346.265625 90.777344 344.796875 C 88.453125 343.332031 86.160156 341.816406 83.902344 340.25 C 81.640625 338.683594 79.417969 337.070312 77.226562 335.410156 C 75.035156 333.75 72.882812 332.042969 70.765625 330.289062 C 68.648438 328.539062 66.566406 326.742188 64.527344 324.898438 C 62.488281 323.058594 60.488281 321.171875 58.527344 319.246094 C 56.566406 317.316406 54.652344 315.347656 52.777344 313.339844 C 50.898438 311.328125 49.070312 309.28125 47.28125 307.191406 C 45.492188 305.105469 43.75 302.980469 42.054688 300.816406 C 40.359375 298.652344 38.707031 296.457031 37.105469 294.222656 C 35.503906 291.988281 33.949219 289.722656 32.445312 287.421875 C 30.9375 285.125 29.484375 282.792969 28.078125 280.429688 C 26.671875 278.066406 25.316406 275.675781 24.015625 273.257812 C 22.710938 270.835938 21.460938 268.390625 20.261719 265.914062 C 19.066406 263.441406 17.917969 260.945312 16.828125 258.421875 C 15.738281 255.898438 14.699219 253.351562 13.71875 250.785156 C 12.734375 248.21875 11.808594 245.632812 10.9375 243.023438 C 10.066406 240.417969 9.25 237.792969 8.492188 235.152344 C 7.730469 232.511719 7.03125 229.851562 6.382812 227.179688 C 5.738281 224.507812 5.152344 221.824219 4.621094 219.128906 C 4.089844 216.429688 3.617188 213.722656 3.203125 211.007812 C 2.789062 208.289062 2.433594 205.566406 2.136719 202.832031 C 1.835938 200.097656 1.597656 197.363281 1.417969 194.617188 C 1.238281 191.875 1.117188 189.132812 1.050781 186.382812 C 0.988281 183.636719 0.984375 180.886719 1.039062 178.136719 C 1.09375 175.390625 1.207031 172.644531 1.382812 169.902344 C 1.554688 167.15625 1.785156 164.417969 2.074219 161.6875 C 2.363281 158.953125 2.710938 156.226562 3.117188 153.507812 C 3.523438 150.789062 3.988281 148.082031 4.511719 145.382812 C 5.035156 142.683594 5.613281 139.996094 6.25 137.324219 C 6.886719 134.652344 7.582031 131.992188 8.332031 129.347656 C 9.085938 126.703125 9.890625 124.078125 10.757812 121.46875 C 11.621094 118.859375 12.539062 116.269531 13.515625 113.699219 C 18.078125 101.664062 23.796875 90.210938 30.675781 79.332031 C 37.550781 68.453125 45.445312 58.371094 54.355469 49.085938 Z M 54.355469 49.085938 " fill-opacity="1" fill-rule="nonzero"/></g></g></g><g fill="#31302c" fill-opacity="1"><g transform="translate(60.910486, 253.351043)"><g><path d="M 18.300781 -12.386719 C 18.300781 -3.882812 14.421875 -2.402344 5.546875 -2.402344 L 5.546875 0 L 51.578125 0 L 51.578125 -2.402344 C 42.707031 -2.402344 38.636719 -3.882812 38.636719 -12.386719 L 38.636719 -59.527344 L 46.402344 -68.21875 L 78.753906 -21.261719 C 85.964844 -11.09375 92.4375 0 107.964844 0 L 127.929688 0 L 127.929688 -2.402344 C 120.90625 -2.402344 114.988281 -4.4375 109.445312 -12.386719 L 76.167969 -60.824219 C 73.578125 -58.605469 70.4375 -57.496094 66.921875 -57.496094 C 60.453125 -57.496094 53.058594 -61.5625 48.25 -70.066406 L 95.394531 -122.941406 C 102.605469 -131.257812 107.410156 -132.367188 118.132812 -132.367188 L 118.132812 -134.769531 L 82.636719 -134.769531 L 82.636719 -132.367188 C 92.621094 -132.367188 101.125 -131.628906 92.4375 -122.753906 L 38.636719 -62.855469 L 38.636719 -122.386719 C 38.636719 -130.890625 42.707031 -132.367188 51.578125 -132.367188 L 51.578125 -134.769531 L 5.546875 -134.769531 L 5.546875 -132.367188 C 14.421875 -132.367188 18.300781 -130.890625 18.300781 -122.386719 Z M 18.300781 -12.386719 "/></g></g></g><g fill="#31302c" fill-opacity="1"><g transform="translate(191.524444, 253.346471)"><g><path d="M 5.546875 0 L 61.011719 0 C 117.402344 0 135.890625 -32.910156 135.890625 -69.148438 C 135.890625 -128.679688 90.222656 -134.78125 65.820312 -134.78125 L 5.546875 -134.78125 L 5.546875 -132.378906 C 14.421875 -132.378906 18.304688 -130.898438 18.304688 -122.394531 L 18.304688 -12.386719 C 18.304688 -3.699219 14.421875 -2.402344 5.546875 -2.402344 Z M 59.347656 -2.402344 C 44.371094 -2.402344 38.640625 -3.882812 38.640625 -12.386719 L 38.640625 -122.578125 C 38.640625 -130.898438 45.113281 -132.378906 62.492188 -132.378906 C 92.996094 -132.378906 115.738281 -111.300781 115.738281 -69.148438 C 115.738281 -38.085938 105.753906 -2.402344 59.347656 -2.402344 Z M 59.347656 -2.402344 "/></g></g></g></svg>