<svg xmlns="http://www.w3.org/2000/svg" xmlns:xlink="http://www.w3.org/1999/xlink" width="500" zoomAndPan="magnify" viewBox="0 0 375 374.999991" height="500" preserveAspectRatio="xMidYMid meet" version="1.0"><defs><g/><clipPath id="ae7810f910"><path d="M 0 54 L 331 54 L 331 375 L 0 375 Z M 0 54 " clip-rule="nonzero"/></clipPath><clipPath id="d17d8b75c9"><path d="M 201.53125 453.152344 L -79.6875 194.988281 L 49.140625 54.65625 L 330.359375 312.820312 Z M 201.53125 453.152344 " clip-rule="nonzero"/></clipPath><clipPath id="da4d1a3f65"><path d="M 201.53125 453.152344 L -79.6875 194.988281 L 49.140625 54.65625 L 330.359375 312.820312 Z M 201.53125 453.152344 " clip-rule="nonzero"/></clipPath><clipPath id="86b10ce68e"><path d="M 201.53125 453.152344 L -79.6875 194.988281 L 49.140625 54.65625 L 330.359375 312.820312 Z M 201.53125 453.152344 " clip-rule="nonzero"/></clipPath></defs><g fill="#000000" fill-opacity="1"><g transform="translate(68.829324, 63.910486)"><g><path d="M -2.65625 3.03125 L 17.34375 20.640625 L 10.671875 28.203125 C 9.585938 29.429688 8.46875 30.300781 7.3125 30.8125 C 6.164062 31.320312 5.039062 31.472656 3.9375 31.265625 C 2.832031 31.066406 1.78125 30.523438 0.78125 29.640625 C -0.0820312 28.878906 -0.660156 27.953125 -0.953125 26.859375 C -1.242188 25.773438 -1.203125 24.625 -0.828125 23.40625 L -1.109375 23.15625 C -2.609375 24.1875 -4.09375 24.664062 -5.5625 24.59375 C -7.039062 24.519531 -8.4375 23.90625 -9.75 22.75 C -11.601562 21.125 -12.550781 19.320312 -12.59375 17.34375 C -12.644531 15.375 -11.726562 13.316406 -9.84375 11.171875 Z M 2.359375 20.703125 C 1.390625 21.804688 0.921875 22.914062 0.953125 24.03125 C 0.992188 25.15625 1.519531 26.164062 2.53125 27.0625 C 3.601562 28 4.664062 28.40625 5.71875 28.28125 C 6.769531 28.15625 7.800781 27.519531 8.8125 26.375 L 13.3125 21.265625 L 6.859375 15.59375 Z M -7.71875 12.703125 C -10.226562 15.546875 -10.203125 18.09375 -7.640625 20.34375 C -5.066406 22.613281 -2.523438 22.328125 -0.015625 19.484375 L 4.921875 13.875 L -2.78125 7.09375 Z M -7.71875 12.703125 "/></g></g></g><g fill="#000000" fill-opacity="1"><g transform="translate(50.620887, 85.037858)"><g><path d="M 6.734375 12.765625 L -1.65625 7.421875 L -8.953125 18.875 L -11.140625 17.484375 L -2.171875 3.40625 L 20.296875 17.71875 L 11.484375 31.546875 L 9.296875 30.15625 L 16.4375 18.953125 L 8.921875 14.171875 L 2.625 24.0625 L 0.4375 22.65625 Z M 6.734375 12.765625 "/></g></g></g><g fill="#000000" fill-opacity="1"><g transform="translate(37.510348, 105.889545)"><g><path d="M -5.109375 10.46875 C -4.421875 8.9375 -3.597656 7.65625 -2.640625 6.625 C -1.691406 5.601562 -0.695312 4.835938 0.34375 4.328125 C 1.382812 3.828125 2.398438 3.5625 3.390625 3.53125 L 4.59375 5.921875 L 4.40625 6.34375 C 1.1875 6.71875 -1.128906 8.476562 -2.546875 11.625 C -3.359375 13.445312 -3.582031 14.976562 -3.21875 16.21875 C -2.851562 17.457031 -1.984375 18.382812 -0.609375 19 C 0.179688 19.351562 0.914062 19.503906 1.59375 19.453125 C 2.28125 19.398438 2.972656 19.125 3.671875 18.625 C 4.367188 18.125 5.117188 17.359375 5.921875 16.328125 L 7.90625 13.8125 C 9.363281 11.925781 10.875 10.726562 12.4375 10.21875 C 14 9.707031 15.632812 9.835938 17.34375 10.609375 C 18.550781 11.148438 19.488281 11.941406 20.15625 12.984375 C 20.832031 14.023438 21.164062 15.265625 21.15625 16.703125 C 21.15625 18.140625 20.78125 19.691406 20.03125 21.359375 C 19.21875 23.179688 18.269531 24.609375 17.1875 25.640625 C 16.101562 26.671875 14.878906 27.328125 13.515625 27.609375 L 12.265625 25.375 L 12.453125 24.96875 C 13.609375 24.644531 14.597656 24.09375 15.421875 23.3125 C 16.253906 22.539062 16.957031 21.515625 17.53125 20.234375 C 18.289062 18.546875 18.535156 17.125 18.265625 15.96875 C 18.003906 14.820312 17.296875 13.992188 16.140625 13.484375 C 15.046875 12.992188 14.03125 12.914062 13.09375 13.25 C 12.164062 13.59375 11.1875 14.429688 10.15625 15.765625 L 8.15625 18.359375 C 6.539062 20.484375 4.921875 21.816406 3.296875 22.359375 C 1.679688 22.898438 -0.015625 22.769531 -1.796875 21.96875 C -3.171875 21.351562 -4.25 20.5 -5.03125 19.40625 C -5.8125 18.320312 -6.222656 17.015625 -6.265625 15.484375 C -6.304688 13.960938 -5.921875 12.289062 -5.109375 10.46875 Z M -5.109375 10.46875 "/></g></g></g><g fill="#000000" fill-opacity="1"><g transform="translate(27.375167, 128.790043)"><g><path d="M 22.0625 20.171875 C 21.570312 21.929688 20.835938 23.351562 19.859375 24.4375 C 18.878906 25.53125 17.707031 26.242188 16.34375 26.578125 C 14.976562 26.910156 13.503906 26.859375 11.921875 26.421875 C 10.328125 25.984375 9.035156 25.269531 8.046875 24.28125 C 7.054688 23.300781 6.414062 22.09375 6.125 20.65625 C 5.84375 19.21875 5.945312 17.617188 6.4375 15.859375 L 8.140625 9.671875 L -1.90625 6.890625 L -1.078125 3.890625 L 24.59375 10.984375 Z M 9.03125 16.46875 C 8.050781 20.03125 9.304688 22.296875 12.796875 23.265625 C 16.296875 24.234375 18.535156 22.9375 19.515625 19.375 L 21.203125 13.28125 L 10.71875 10.375 Z M 9.03125 16.46875 "/></g></g></g><g fill="#000000" fill-opacity="1"><g transform="translate(20.232083, 154.652966)"><g><path d="M -1.796875 14.515625 C -1.578125 12.222656 -0.882812 10.222656 0.28125 8.515625 C 1.445312 6.816406 3.097656 5.554688 5.234375 4.734375 C 7.367188 3.910156 9.953125 3.644531 12.984375 3.9375 C 16.023438 4.238281 18.515625 5 20.453125 6.21875 C 22.390625 7.445312 23.765625 9.003906 24.578125 10.890625 C 25.390625 12.785156 25.6875 14.878906 25.46875 17.171875 C 25.238281 19.460938 24.539062 21.457031 23.375 23.15625 C 22.21875 24.851562 20.566406 26.113281 18.421875 26.9375 C 16.285156 27.769531 13.695312 28.035156 10.65625 27.734375 C 7.625 27.441406 5.140625 26.679688 3.203125 25.453125 C 1.273438 24.222656 -0.09375 22.664062 -0.90625 20.78125 C -1.726562 18.894531 -2.023438 16.804688 -1.796875 14.515625 Z M 1.078125 14.796875 C 0.804688 17.546875 1.457031 19.742188 3.03125 21.390625 C 4.613281 23.035156 7.265625 24.039062 10.984375 24.40625 C 14.703125 24.769531 17.5 24.296875 19.375 22.984375 C 21.25 21.671875 22.320312 19.640625 22.59375 16.890625 C 23.15625 11.179688 19.847656 7.976562 12.671875 7.28125 C 5.503906 6.582031 1.640625 9.085938 1.078125 14.796875 Z M 1.078125 14.796875 "/></g></g></g><g fill="#000000" fill-opacity="1"><g transform="translate(17.595062, 186.236849)"><g><path d="M 0.296875 4.015625 L 26.875 2.09375 L 27.09375 5.21875 L 15.46875 6.0625 L 15.515625 6.625 L 27.921875 16.6875 L 28.171875 20.09375 L 27.71875 20.125 L 14.46875 9.53125 L 2.109375 22.90625 L 1.65625 22.9375 L 1.390625 19.359375 L 12.796875 6.8125 L 12.75 6.25 L 0.515625 7.140625 Z M 0.296875 4.015625 "/></g></g></g><g fill="#000000" fill-opacity="1"><g transform="translate(19.639935, 211.813908)"><g><path d="M 13.8125 4.25 L 4.09375 6.421875 L 7.0625 19.671875 L 4.53125 20.234375 L 0.875 3.9375 L 26.875 -1.875 L 30.453125 14.125 L 27.921875 14.6875 L 25.03125 1.734375 L 16.34375 3.6875 L 18.90625 15.125 L 16.375 15.6875 Z M 13.8125 4.25 "/></g></g></g><g fill="#000000" fill-opacity="1"><g transform="translate(25.271624, 235.102552)"><g/></g></g><g fill="#000000" fill-opacity="1"><g transform="translate(28.371708, 245.334601)"><g><path d="M 1.671875 3.671875 L 25.921875 -7.359375 L 27.21875 -4.515625 L 16.625 0.3125 L 16.859375 0.828125 L 31.96875 5.953125 L 33.390625 9.0625 L 32.984375 9.25 L 16.859375 3.90625 L 9.921875 20.75 L 9.515625 20.9375 L 8.03125 17.671875 L 14.375 1.953125 L 14.140625 1.4375 L 2.96875 6.515625 Z M 1.671875 3.671875 "/></g></g></g><g fill="#000000" fill-opacity="1"><g transform="translate(39.158452, 268.002366)"><g><path d="M 3.671875 6.140625 L 2.0625 3.453125 L 24.9375 -10.203125 L 26.546875 -7.515625 Z M 3.671875 6.140625 "/></g></g></g><g fill="#000000" fill-opacity="1"><g transform="translate(45.530326, 279.055021)"><g><path d="M 33.78125 0.609375 L 31.640625 2.203125 L 26.625 -4.46875 L 7.46875 9.9375 L 5.609375 7.453125 L 24.765625 -6.953125 L 19.75 -13.625 L 21.890625 -15.21875 Z M 33.78125 0.609375 "/></g></g></g><g fill="#000000" fill-opacity="1"><g transform="translate(59.965816, 298.249689)"><g><path d="M 10.28125 10.53125 C 8.601562 8.90625 7.484375 7.070312 6.921875 5.03125 C 6.367188 3 6.441406 0.890625 7.140625 -1.296875 C 7.835938 -3.492188 9.1875 -5.617188 11.1875 -7.671875 C 13.207031 -9.742188 15.300781 -11.15625 17.46875 -11.90625 C 19.644531 -12.664062 21.753906 -12.789062 23.796875 -12.28125 C 25.847656 -11.78125 27.710938 -10.71875 29.390625 -9.09375 C 31.171875 -7.351562 32.320312 -5.566406 32.84375 -3.734375 C 33.375 -1.910156 33.242188 -0.0664062 32.453125 1.796875 L 30.09375 1.359375 L 29.765625 1.03125 C 30.304688 -0.550781 30.378906 -1.976562 29.984375 -3.25 C 29.585938 -4.53125 28.738281 -5.804688 27.4375 -7.078125 C 26.226562 -8.242188 24.898438 -9.007812 23.453125 -9.375 C 22.003906 -9.75 20.441406 -9.617188 18.765625 -8.984375 C 17.085938 -8.359375 15.363281 -7.140625 13.59375 -5.328125 C 11.84375 -3.523438 10.675781 -1.78125 10.09375 -0.09375 C 9.507812 1.59375 9.421875 3.15625 9.828125 4.59375 C 10.234375 6.039062 11.039062 7.347656 12.25 8.515625 C 13.632812 9.867188 15.066406 10.660156 16.546875 10.890625 C 18.023438 11.128906 19.660156 10.757812 21.453125 9.78125 L 21.78125 10.09375 L 22.546875 12.296875 C 20.453125 13.554688 18.351562 14.035156 16.25 13.734375 C 14.15625 13.441406 12.164062 12.375 10.28125 10.53125 Z M 10.28125 10.53125 "/></g></g></g><g fill="#000000" fill-opacity="1"><g transform="translate(80.619713, 318.173348)"><g><path d="M 26.265625 -1.265625 L 32.34375 -10.21875 L 34.921875 -8.453125 L 19.9375 13.578125 L 17.359375 11.8125 L 24.765625 0.921875 L 13.328125 -6.859375 L 5.921875 4.03125 L 3.328125 2.265625 L 18.3125 -19.765625 L 20.90625 -18 L 14.828125 -9.046875 Z M 26.265625 -1.265625 "/></g></g></g><g fill="#000000" fill-opacity="1"><g transform="translate(106.100207, 335.003493)"><g><path d="M 11.765625 -8.359375 L 7.578125 0.65625 L 19.90625 6.375 L 18.8125 8.734375 L 3.65625 1.703125 L 14.875 -22.46875 L 29.75 -15.5625 L 28.65625 -13.203125 L 16.609375 -18.796875 L 12.859375 -10.71875 L 23.5 -5.78125 L 22.40625 -3.421875 Z M 11.765625 -8.359375 "/></g></g></g><g fill="#000000" fill-opacity="1"><g transform="translate(128.684264, 345.533708)"><g><path d="M 6.828125 1.890625 L 3.890625 1.078125 L 11.015625 -24.59375 L 14.71875 -23.5625 L 21.78125 -0.46875 L 22.234375 -0.421875 L 27.65625 -19.96875 L 30.59375 -19.15625 L 23.46875 6.515625 L 20.3125 5.640625 L 13.09375 -18.953125 L 12.640625 -19.015625 Z M 6.828125 1.890625 "/></g></g></g><g fill="#000000" fill-opacity="1"><g transform="translate(158.473869, 353.361844)"><g><path d="M 11.53125 1.609375 C 9.863281 1.429688 8.394531 1.046875 7.125 0.453125 C 5.851562 -0.140625 4.816406 -0.847656 4.015625 -1.671875 C 3.210938 -2.503906 2.640625 -3.382812 2.296875 -4.3125 L 4.21875 -6.203125 L 4.671875 -6.15625 C 6.023438 -3.207031 8.414062 -1.550781 11.84375 -1.1875 C 13.832031 -0.976562 15.359375 -1.238281 16.421875 -1.96875 C 17.484375 -2.695312 18.09375 -3.804688 18.25 -5.296875 C 18.34375 -6.171875 18.257812 -6.925781 18 -7.5625 C 17.738281 -8.195312 17.265625 -8.769531 16.578125 -9.28125 C 15.890625 -9.789062 14.929688 -10.265625 13.703125 -10.703125 L 10.671875 -11.796875 C 8.429688 -12.597656 6.828125 -13.660156 5.859375 -14.984375 C 4.898438 -16.316406 4.519531 -17.914062 4.71875 -19.78125 C 4.851562 -21.09375 5.3125 -22.226562 6.09375 -23.1875 C 6.875 -24.15625 7.945312 -24.859375 9.3125 -25.296875 C 10.6875 -25.734375 12.28125 -25.851562 14.09375 -25.65625 C 16.082031 -25.445312 17.734375 -24.988281 19.046875 -24.28125 C 20.359375 -23.582031 21.363281 -22.628906 22.0625 -21.421875 L 20.3125 -19.53125 L 19.875 -19.578125 C 19.21875 -20.585938 18.390625 -21.363281 17.390625 -21.90625 C 16.390625 -22.445312 15.191406 -22.789062 13.796875 -22.9375 C 11.960938 -23.132812 10.539062 -22.925781 9.53125 -22.3125 C 8.519531 -21.707031 7.945312 -20.773438 7.8125 -19.515625 C 7.6875 -18.316406 7.925781 -17.328125 8.53125 -16.546875 C 9.144531 -15.773438 10.242188 -15.109375 11.828125 -14.546875 L 14.921875 -13.453125 C 17.441406 -12.578125 19.210938 -11.453125 20.234375 -10.078125 C 21.253906 -8.703125 21.660156 -7.039062 21.453125 -5.09375 C 21.285156 -3.59375 20.804688 -2.300781 20.015625 -1.21875 C 19.222656 -0.144531 18.109375 0.644531 16.671875 1.15625 C 15.234375 1.664062 13.519531 1.816406 11.53125 1.609375 Z M 11.53125 1.609375 "/></g></g></g><g fill="#000000" fill-opacity="1"><g transform="translate(182.680296, 355.50764)"><g/></g></g><g fill="#000000" fill-opacity="1"><g transform="translate(193.428986, 355.87942)"><g><path d="M 11.140625 -0.796875 C 9.296875 -0.609375 7.648438 -0.765625 6.203125 -1.265625 C 4.753906 -1.765625 3.59375 -2.570312 2.71875 -3.6875 C 1.851562 -4.8125 1.335938 -6.171875 1.171875 -7.765625 C 0.972656 -9.628906 1.28125 -11.195312 2.09375 -12.46875 C 2.914062 -13.738281 4.1875 -14.832031 5.90625 -15.75 L 5.9375 -16.109375 C 4.925781 -17.128906 4.191406 -18.046875 3.734375 -18.859375 C 3.285156 -19.671875 3.003906 -20.609375 2.890625 -21.671875 C 2.773438 -22.765625 2.929688 -23.769531 3.359375 -24.6875 C 3.785156 -25.601562 4.457031 -26.363281 5.375 -26.96875 C 6.289062 -27.570312 7.414062 -27.945312 8.75 -28.09375 C 10.007812 -28.226562 11.125 -28.128906 12.09375 -27.796875 C 13.070312 -27.460938 13.859375 -26.921875 14.453125 -26.171875 C 15.046875 -25.421875 15.398438 -24.492188 15.515625 -23.390625 C 15.691406 -21.742188 15.34375 -20.289062 14.46875 -19.03125 C 13.59375 -17.769531 12.195312 -16.660156 10.28125 -15.703125 L 10.28125 -15.328125 L 17.390625 -7.78125 C 17.773438 -8.695312 18 -9.753906 18.0625 -10.953125 C 18.125 -12.160156 18.078125 -13.492188 17.921875 -14.953125 L 17.859375 -15.53125 L 20.515625 -15.8125 C 20.960938 -11.625 20.578125 -8.300781 19.359375 -5.84375 C 19.929688 -5.34375 20.398438 -5.007812 20.765625 -4.84375 C 21.140625 -4.675781 21.515625 -4.613281 21.890625 -4.65625 C 22.265625 -4.6875 22.617188 -4.78125 22.953125 -4.9375 L 23.21875 -4.890625 L 23.875 -2.78125 C 23.675781 -2.601562 23.398438 -2.453125 23.046875 -2.328125 C 22.703125 -2.210938 22.347656 -2.132812 21.984375 -2.09375 C 21.148438 -2.007812 20.394531 -2.109375 19.71875 -2.390625 C 19.050781 -2.671875 18.421875 -3.140625 17.828125 -3.796875 L 17.484375 -3.75 C 16.160156 -2.09375 14.046875 -1.109375 11.140625 -0.796875 Z M 8.5 -17.21875 C 10.03125 -18.050781 11.132812 -18.90625 11.8125 -19.78125 C 12.5 -20.65625 12.78125 -21.710938 12.65625 -22.953125 C 12.550781 -23.890625 12.175781 -24.601562 11.53125 -25.09375 C 10.882812 -25.582031 10.046875 -25.773438 9.015625 -25.671875 C 7.960938 -25.554688 7.144531 -25.160156 6.5625 -24.484375 C 5.976562 -23.804688 5.742188 -22.941406 5.859375 -21.890625 C 5.941406 -21.117188 6.171875 -20.40625 6.546875 -19.75 C 6.929688 -19.101562 7.582031 -18.257812 8.5 -17.21875 Z M 10.96875 -3.453125 C 12.96875 -3.671875 14.5625 -4.359375 15.75 -5.515625 L 7.375 -14.25 C 6.25 -13.570312 5.421875 -12.75 4.890625 -11.78125 C 4.359375 -10.820312 4.164062 -9.660156 4.3125 -8.296875 C 4.4375 -7.128906 4.796875 -6.160156 5.390625 -5.390625 C 5.984375 -4.617188 6.753906 -4.070312 7.703125 -3.75 C 8.660156 -3.425781 9.75 -3.328125 10.96875 -3.453125 Z M 10.96875 -3.453125 "/></g></g></g><g fill="#000000" fill-opacity="1"><g transform="translate(219.523799, 352.593782)"><g/></g></g><g fill="#000000" fill-opacity="1"><g transform="translate(230.177374, 350.665259)"><g><path d="M 14.0625 -4.390625 C 11.851562 -3.640625 9.710938 -3.472656 7.640625 -3.890625 C 5.566406 -4.316406 3.707031 -5.335938 2.0625 -6.953125 C 0.425781 -8.566406 -0.851562 -10.734375 -1.78125 -13.453125 C -2.707031 -16.191406 -3.015625 -18.703125 -2.703125 -20.984375 C -2.390625 -23.265625 -1.539062 -25.203125 -0.15625 -26.796875 C 1.21875 -28.398438 3.007812 -29.578125 5.21875 -30.328125 C 7.570312 -31.128906 9.679688 -31.347656 11.546875 -30.984375 C 13.421875 -30.617188 15.003906 -29.664062 16.296875 -28.125 L 14.84375 -26.203125 L 14.421875 -26.0625 C 13.234375 -27.257812 11.984375 -27.972656 10.671875 -28.203125 C 9.359375 -28.429688 7.84375 -28.253906 6.125 -27.671875 C 4.53125 -27.128906 3.242188 -26.296875 2.265625 -25.171875 C 1.285156 -24.046875 0.691406 -22.59375 0.484375 -20.8125 C 0.273438 -19.03125 0.578125 -16.9375 1.390625 -14.53125 C 2.203125 -12.144531 3.234375 -10.3125 4.484375 -9.03125 C 5.734375 -7.757812 7.09375 -6.976562 8.5625 -6.6875 C 10.03125 -6.394531 11.5625 -6.519531 13.15625 -7.0625 C 14.988281 -7.6875 16.34375 -8.601562 17.21875 -9.8125 C 18.09375 -11.03125 18.5 -12.660156 18.4375 -14.703125 L 18.875 -14.84375 L 21.171875 -14.515625 C 21.347656 -12.085938 20.828125 -10.003906 19.609375 -8.265625 C 18.398438 -6.523438 16.550781 -5.234375 14.0625 -4.390625 Z M 14.0625 -4.390625 "/></g></g></g><g fill="#000000" fill-opacity="1"><g transform="translate(257.107573, 341.235358)"><g><path d="M 21.109375 -11.34375 L 18.171875 -9.765625 L 12.5625 -15.03125 L 2.546875 -9.65625 L 3.828125 -2.0625 L 0.9375 -0.5 L -3.5 -28.359375 L 0.328125 -30.421875 Z M -0.265625 -26.421875 L 2.078125 -12.375 L 10.515625 -16.90625 L 0.125 -26.640625 Z M -0.265625 -26.421875 "/></g></g></g><g fill="#000000" fill-opacity="1"><g transform="translate(281.183989, 328.10975)"><g><path d="M 3.1875 -2.453125 L -13.0625 -23.5625 L -5.0625 -29.71875 C -3.757812 -30.71875 -2.492188 -31.359375 -1.265625 -31.640625 C -0.046875 -31.921875 1.082031 -31.851562 2.125 -31.4375 C 3.175781 -31.03125 4.109375 -30.296875 4.921875 -29.234375 C 5.617188 -28.316406 6.003906 -27.296875 6.078125 -26.171875 C 6.160156 -25.046875 5.90625 -23.925781 5.3125 -22.8125 L 5.53125 -22.515625 C 7.195312 -23.253906 8.742188 -23.441406 10.171875 -23.078125 C 11.609375 -22.722656 12.863281 -21.847656 13.9375 -20.453125 C 15.4375 -18.503906 16.019531 -16.554688 15.6875 -14.609375 C 15.351562 -12.660156 14.054688 -10.816406 11.796875 -9.078125 Z M 1.640625 -20.765625 C 2.804688 -21.660156 3.476562 -22.660156 3.65625 -23.765625 C 3.84375 -24.878906 3.523438 -25.96875 2.703125 -27.03125 C 1.828125 -28.164062 0.863281 -28.773438 -0.1875 -28.859375 C -1.25 -28.941406 -2.390625 -28.515625 -3.609375 -27.578125 L -9 -23.421875 L -3.75 -16.609375 Z M 10.03125 -10.984375 C 13.03125 -13.296875 13.488281 -15.800781 11.40625 -18.5 C 9.3125 -21.21875 6.765625 -21.421875 3.765625 -19.109375 L -2.171875 -14.546875 L 4.09375 -6.421875 Z M 10.03125 -10.984375 "/></g></g></g><g fill="#000000" fill-opacity="1"><g transform="translate(302.518096, 311.02437)"><g><path d="M 5.109375 -5 L 2.875 -2.8125 L -15.75 -21.859375 L -13.515625 -24.046875 Z M 5.109375 -5 "/></g></g></g><g fill="#000000" fill-opacity="1"><g transform="translate(312.17832, 302.177907)"><g><path d="M 4.40625 -5.5625 L 2.5 -3.15625 L -18.390625 -19.671875 L -16 -22.6875 L 8.015625 -20.25 L 8.234375 -20.65625 L -7.671875 -33.234375 L -5.78125 -35.625 L 15.109375 -19.109375 L 13.078125 -16.53125 L -12.390625 -19.421875 L -12.625 -19.015625 Z M 4.40625 -5.5625 "/></g></g></g><g fill="#000000" fill-opacity="1"><g transform="translate(330.923849, 277.757546)"><g><path d="M -7.515625 -12.34375 L 1.203125 -7.515625 L 7.765625 -19.390625 L 10.03125 -18.140625 L 1.953125 -3.53125 L -21.359375 -16.421875 L -13.421875 -30.78125 L -11.15625 -29.53125 L -17.578125 -17.90625 L -9.78125 -13.59375 L -4.109375 -23.84375 L -1.84375 -22.59375 Z M -7.515625 -12.34375 "/></g></g></g><g fill="#000000" fill-opacity="1"><g transform="translate(342.664047, 256.16866)"><g><path d="M -17.53125 -28.875 L -15.03125 -27.921875 L -17.984375 -20.125 L 4.421875 -11.625 L 3.3125 -8.71875 L -19.09375 -17.21875 L -22.0625 -9.421875 L -24.5625 -10.375 Z M -17.53125 -28.875 "/></g></g></g><g fill="#000000" fill-opacity="1"><g transform="translate(350.530529, 234.366482)"><g/></g></g><g fill="#000000" fill-opacity="1"><g transform="translate(354.133279, 223.723335)"><g><path d="M 0.859375 -6.875 L 0.5 -4 L -25.9375 -7.34375 L -25.34375 -11.953125 L -1.953125 -17.140625 L -1.90625 -17.5 L -23.28125 -28.34375 L -22.71875 -32.78125 L 3.71875 -29.4375 L 3.34375 -26.5 L -18.21875 -29.21875 L -18.359375 -28.78125 L 2.296875 -18.25 L 1.90625 -15.140625 L -20.71875 -10.046875 L -20.703125 -9.59375 Z M 0.859375 -6.875 "/></g></g></g><g fill="#000000" fill-opacity="1"><g transform="translate(358.036467, 187.460085)"><g><path d="M -1.515625 -23.921875 L -1.3125 -20.578125 L -8.453125 -17.671875 L -7.734375 -6.328125 L -0.28125 -4.328125 L -0.0625 -1.0625 L -27.25 -8.640625 L -27.53125 -12.96875 Z M -24.140625 -10.75 L -10.390625 -7.046875 L -11 -16.609375 L -24.171875 -11.203125 Z M -24.140625 -10.75 "/></g></g></g><g fill="#000000" fill-opacity="1"><g transform="translate(356.063599, 160.216485)"><g><path d="M -0.875 -3.9375 L -26.875 1.859375 L -27.5625 -1.1875 L -16.203125 -3.71875 L -16.328125 -4.265625 L -30.0625 -12.40625 L -30.8125 -15.75 L -30.375 -15.84375 L -15.703125 -7.3125 L -5.453125 -22.359375 L -5.015625 -22.453125 L -4.234375 -18.9375 L -13.65625 -4.859375 L -13.53125 -4.3125 L -1.5625 -6.984375 Z M -0.875 -3.9375 "/></g></g></g><g fill="#000000" fill-opacity="1"><g transform="translate(350.283692, 135.217658)"><g><path d="M -14.28125 -2.15625 L -5 -5.734375 L -9.875 -18.40625 L -7.453125 -19.34375 L -1.453125 -3.765625 L -26.3125 5.8125 L -32.203125 -9.5 L -29.78125 -10.4375 L -25.015625 1.96875 L -16.703125 -1.234375 L -20.90625 -12.171875 L -18.484375 -13.09375 Z M -14.28125 -2.15625 "/></g></g></g><g fill="#000000" fill-opacity="1"><g transform="translate(341.323516, 112.180048)"><g><path d="M -2 -3.5 L -25.125 9.71875 L -29.921875 1.328125 C -30.804688 -0.222656 -31.296875 -1.671875 -31.390625 -3.015625 C -31.484375 -4.359375 -31.210938 -5.5625 -30.578125 -6.625 C -29.941406 -7.695312 -28.988281 -8.597656 -27.71875 -9.328125 C -26.289062 -10.140625 -24.898438 -10.453125 -23.546875 -10.265625 C -22.203125 -10.085938 -20.867188 -9.375 -19.546875 -8.125 L -19.203125 -8.3125 C -19.335938 -9.21875 -19.222656 -10.085938 -18.859375 -10.921875 C -18.503906 -11.765625 -17.8125 -12.75 -16.78125 -13.875 L -11.328125 -19.8125 L -9.734375 -17.03125 L -15.46875 -10.65625 C -16.144531 -9.914062 -16.617188 -9.226562 -16.890625 -8.59375 C -17.160156 -7.96875 -17.242188 -7.316406 -17.140625 -6.640625 C -17.046875 -5.972656 -16.753906 -5.21875 -16.265625 -4.375 L -13.921875 -0.28125 L -3.546875 -6.21875 Z M -19.453125 -4.578125 C -20.273438 -6.023438 -21.222656 -6.910156 -22.296875 -7.234375 C -23.367188 -7.554688 -24.59375 -7.320312 -25.96875 -6.53125 C -27.332031 -5.75 -28.144531 -4.816406 -28.40625 -3.734375 C -28.675781 -2.648438 -28.398438 -1.382812 -27.578125 0.0625 L -24.359375 5.671875 L -16.234375 1.03125 Z M -19.453125 -4.578125 "/></g></g></g><g fill="#000000" fill-opacity="1"><g transform="translate(327.759982, 88.946628)"><g><path d="M -6.953125 -9.34375 C -5.910156 -8.03125 -5.148438 -6.710938 -4.671875 -5.390625 C -4.203125 -4.066406 -3.976562 -2.828125 -4 -1.671875 C -4.03125 -0.515625 -4.257812 0.503906 -4.6875 1.390625 L -7.375 1.34375 L -7.65625 0.984375 C -6.507812 -2.035156 -7.007812 -4.894531 -9.15625 -7.59375 C -10.394531 -9.15625 -11.644531 -10.054688 -12.90625 -10.296875 C -14.175781 -10.546875 -15.398438 -10.203125 -16.578125 -9.265625 C -17.253906 -8.722656 -17.726562 -8.132812 -18 -7.5 C -18.28125 -6.875 -18.359375 -6.140625 -18.234375 -5.296875 C -18.109375 -4.453125 -17.773438 -3.429688 -17.234375 -2.234375 L -15.890625 0.671875 C -14.890625 2.835938 -14.519531 4.726562 -14.78125 6.34375 C -15.050781 7.96875 -15.921875 9.363281 -17.390625 10.53125 C -18.429688 11.351562 -19.566406 11.820312 -20.796875 11.9375 C -22.023438 12.050781 -23.273438 11.773438 -24.546875 11.109375 C -25.828125 10.453125 -27.035156 9.410156 -28.171875 7.984375 C -29.421875 6.421875 -30.253906 4.921875 -30.671875 3.484375 C -31.085938 2.054688 -31.109375 0.664062 -30.734375 -0.6875 L -28.1875 -0.75 L -27.90625 -0.40625 C -28.144531 0.757812 -28.109375 1.890625 -27.796875 2.984375 C -27.492188 4.085938 -26.90625 5.1875 -26.03125 6.28125 C -24.882812 7.726562 -23.738281 8.59375 -22.59375 8.875 C -21.445312 9.164062 -20.375 8.914062 -19.375 8.125 C -18.4375 7.382812 -17.90625 6.519531 -17.78125 5.53125 C -17.664062 4.550781 -17.960938 3.296875 -18.671875 1.765625 L -20.0625 -1.1875 C -21.195312 -3.59375 -21.632812 -5.640625 -21.375 -7.328125 C -21.113281 -9.015625 -20.21875 -10.46875 -18.6875 -11.6875 C -17.5 -12.632812 -16.242188 -13.203125 -14.921875 -13.390625 C -13.609375 -13.585938 -12.257812 -13.351562 -10.875 -12.6875 C -9.5 -12.019531 -8.191406 -10.90625 -6.953125 -9.34375 Z M -6.953125 -9.34375 "/></g></g></g><g fill="#000000" fill-opacity="1"><g transform="translate(312.296395, 70.199607)"><g/></g></g><g fill="#000000" fill-opacity="1"><g transform="translate(70.132025, 243.842713)"><g><path d="M 16.25 -11 L 16.25 -108.65625 C 16.25 -112.476562 15.34375 -114.910156 13.53125 -115.953125 C 11.726562 -116.992188 8.859375 -117.515625 4.921875 -117.515625 L 4.921875 -119.640625 L 45.796875 -119.640625 L 45.796875 -117.515625 C 41.847656 -117.515625 38.941406 -116.992188 37.078125 -115.953125 C 35.222656 -114.910156 34.296875 -112.476562 34.296875 -108.65625 L 34.296875 -55.796875 L 82.0625 -108.984375 C 84.6875 -111.609375 85.78125 -113.519531 85.34375 -114.71875 C 84.90625 -115.925781 83.535156 -116.691406 81.234375 -117.015625 C 78.941406 -117.347656 76.316406 -117.515625 73.359375 -117.515625 L 73.359375 -119.640625 L 104.875 -119.640625 L 104.875 -117.515625 C 101.695312 -117.515625 99.015625 -117.320312 96.828125 -116.9375 C 94.640625 -116.550781 92.613281 -115.785156 90.75 -114.640625 C 88.894531 -113.492188 86.875 -111.660156 84.6875 -109.140625 L 42.84375 -62.203125 C 45.03125 -58.484375 47.625 -55.691406 50.625 -53.828125 C 53.632812 -51.972656 56.5625 -51.046875 59.40625 -51.046875 C 62.582031 -51.046875 65.320312 -52.03125 67.625 -54 L 97.15625 -11 C 99.675781 -7.5 102.273438 -5.144531 104.953125 -3.9375 C 107.640625 -2.738281 110.515625 -2.140625 113.578125 -2.140625 L 113.578125 0 L 95.84375 0 C 91.25 0 87.421875 -0.957031 84.359375 -2.875 C 81.296875 -4.789062 78.671875 -7.195312 76.484375 -10.09375 C 74.296875 -12.988281 72.109375 -15.914062 69.921875 -18.875 L 41.203125 -60.5625 L 34.296875 -52.84375 L 34.296875 -11 C 34.296875 -7.28125 35.222656 -4.875 37.078125 -3.78125 C 38.941406 -2.6875 41.847656 -2.140625 45.796875 -2.140625 L 45.796875 0 L 4.921875 0 L 4.921875 -2.140625 C 8.859375 -2.140625 11.726562 -2.6875 13.53125 -3.78125 C 15.34375 -4.875 16.25 -7.28125 16.25 -11 Z M 16.25 -11 "/></g></g></g><g fill="#000000" fill-opacity="1"><g transform="translate(186.171448, 243.842713)"><g><path d="M 4.921875 0 L 4.921875 -2.140625 C 8.859375 -2.140625 11.726562 -2.65625 13.53125 -3.6875 C 15.34375 -4.726562 16.25 -7.164062 16.25 -11 L 16.25 -108.65625 C 16.25 -112.476562 15.34375 -114.910156 13.53125 -115.953125 C 11.726562 -116.992188 8.859375 -117.515625 4.921875 -117.515625 L 4.921875 -119.640625 L 58.421875 -119.640625 C 62.804688 -119.640625 67.734375 -119.285156 73.203125 -118.578125 C 78.671875 -117.867188 84.164062 -116.445312 89.6875 -114.3125 C 95.21875 -112.175781 100.332031 -108.972656 105.03125 -104.703125 C 109.738281 -100.441406 113.515625 -94.804688 116.359375 -87.796875 C 119.203125 -80.796875 120.625 -71.988281 120.625 -61.375 C 120.625 -53.394531 119.503906 -45.710938 117.265625 -38.328125 C 115.023438 -30.941406 111.332031 -24.375 106.1875 -18.625 C 101.039062 -12.882812 94.203125 -8.34375 85.671875 -5 C 77.140625 -1.664062 66.632812 0 54.15625 0 Z M 52.6875 -2.140625 C 62.96875 -2.140625 71.390625 -3.890625 77.953125 -7.390625 C 84.523438 -10.890625 89.613281 -15.566406 93.21875 -21.421875 C 96.832031 -27.273438 99.320312 -33.675781 100.6875 -40.625 C 102.0625 -47.570312 102.75 -54.488281 102.75 -61.375 C 102.75 -73.851562 100.695312 -84.25 96.59375 -92.5625 C 92.488281 -100.882812 86.878906 -107.125 79.765625 -111.28125 C 72.648438 -115.4375 64.550781 -117.515625 55.46875 -117.515625 C 47.8125 -117.515625 42.367188 -116.992188 39.140625 -115.953125 C 35.910156 -114.910156 34.296875 -112.53125 34.296875 -108.8125 L 34.296875 -11 C 34.296875 -7.28125 35.691406 -4.875 38.484375 -3.78125 C 41.273438 -2.6875 46.007812 -2.140625 52.6875 -2.140625 Z M 52.6875 -2.140625 "/></g></g></g><g clip-path="url(#ae7810f910)"><g clip-path="url(#d17d8b75c9)"><g clip-path="url(#da4d1a3f65)"><g clip-path="url(#86b10ce68e)"><path fill="#000000" d="M 49.15625 54.660156 L 54.929688 59.964844 C -13.183594 134.160156 -8.117188 250.054688 66.222656 318.300781 C 140.566406 386.550781 256.472656 381.710938 324.585938 307.511719 L 330.363281 312.816406 C 259.328125 390.195312 138.460938 395.238281 60.929688 324.066406 C -16.597656 252.894531 -21.882812 132.039062 49.15625 54.660156 Z M 49.15625 54.660156 " fill-opacity="1" fill-rule="nonzero"/></g></g></g></g></svg>